#!OML:ASF E:\Steps\Project 1\Capture day 1\Session 2\Subject.ASF
:FULLY-SPECIFIED
:DEGREES
3693
root 9.91369 16.4716 6.01708 22.2471 -4.135 0.675145
lowerback -22.0948 -1.47945 -3.81606
upperback 1.6859 -1.09281 1.05348
thorax 14.5262 -0.857367 3.02061
lowerneck 0.874294 -0.299652 -2.47025
upperneck 21.2764 -0.850637 2.91776
head 6.32044 -0.40801 1.30568
rclavicle 1.45361e-014 2.08724e-015
rhumerus -38.0523 -1.40868 -77.5049
rradius 45.6266
rwrist -1.67157
rhand -2.72734 -776.479
rfingers 7.12502
rthumb 22.9756 274.87
lclavicle 1.45361e-014 2.08724e-015
lhumerus -19.8582 -3.92217 84.2418
lradius 20.9266
lwrist -7.40738
lhand -20.8399 -11.2029
lfingers 7.12502
lthumb 5.52896 -341.295
rfemur -26.671 0.152526 17.1597
rtibia 16.9803
rfoot -15.282 -4.55972
rtoes -25.0255
lfemur -21.9082 -7.62775 -16.5979
ltibia 12.1984
lfoot 349.267 3.31299
ltoes -21.9304
3694
root 9.86594 16.473 6.02092 22.3426 -4.49449 0.543442
lowerback -21.543 -1.20858 -3.43479
upperback 1.45494 -0.848119 0.991778
thorax 13.9002 -0.697615 2.81418
lowerneck 0.885245 -0.291615 -2.38602
upperneck 21.7256 -0.81551 2.71217
head 6.46166 -0.398952 1.23001
rclavicle -6.65929e-015 1.00386e-014
rhumerus -38.2763 -1.27912 -77.6506
rradius 45.6613
rwrist -1.83415
rhand -2.77933 -776.363
rfingers 7.12502
rthumb 22.9257 274.98
lclavicle -6.65929e-015 1.00386e-014
lhumerus -20.5903 -3.27165 83.8043
lradius 20.5391
lwrist -8.06905
lhand -20.7997 -10.7987
lfingers 7.12502
lthumb 5.56773 -340.892
rfemur -26.1158 0.589371 17.4907
rtibia 15.6232
rfoot -15.2355 -4.6449
rtoes -21.49
lfemur -22.0557 -7.82631 -16.2174
ltibia 12.4454
lfoot 349.009 3.82214
ltoes -21.2397
3695
root 9.81906 16.4769 6.02288 22.4449 -4.88554 0.399364
lowerback -21.6556 -0.913429 -3.02222
upperback 1.73555 -0.5419 0.881828
thorax 14.2649 -0.531111 2.55516
lowerneck 0.0402624 -0.225174 -2.00975
upperneck 22.2064 -0.681226 2.40469
head 6.75809 -0.320812 1.07635
rclavicle 4.72114e-016 -1.73937e-014
rhumerus -37.617 -1.72406 -77.7459
rradius 45.5554
rwrist -1.4673
rhand -2.62978 -776.296
rfingers 7.12502
rthumb 23.0692 275.065
lclavicle 4.72114e-016 -1.73937e-014
lhumerus -20.3469 -2.58837 83.2257
lradius 20.0252
lwrist -8.63291
lhand -21.3431 -11.6511
lfingers 7.12502
lthumb 5.04306 -341.731
rfemur -25.7008 0.820876 17.9211
rtibia 14.489
rfoot -15.2155 -4.73441
rtoes -18.6796
lfemur -22.2215 -7.95944 -15.8615
ltibia 12.7789
lfoot 348.786 4.40528
ltoes -21.653
3696
root 9.77432 16.4801 6.02361 22.5547 -5.32169 0.299622
lowerback -21.4253 -0.677524 -2.72445
upperback 1.77504 -0.307302 0.84403
thorax 14.1567 -0.397668 2.41864
lowerneck -0.130995 -0.0601821 -2.36664
upperneck 21.8755 -0.550401 3.08231
head 6.67729 -0.234002 1.36103
rclavicle 4.27387e-015 -1.12313e-014
rhumerus -37.3497 -1.83447 -77.7776
rradius 45.5074
rwrist -1.45008
rhand -2.83235 -776.187
rfingers 7.12502
rthumb 22.8748 275.149
lclavicle 4.27387e-015 -1.12313e-014
lhumerus -20.525 -1.7374 82.7158
lradius 19.4584
lwrist -9.11959
lhand -22.311 -13.1879
lfingers 7.12502
lthumb 4.10845 -343.248
rfemur -25.4181 1.13565 18.2459
rtibia 13.6063
rfoot -14.6669 -4.85008
rtoes -19.4131
lfemur -22.4032 -7.83515 -15.6401
ltibia 13.1782
lfoot 348.607 4.80464
ltoes -22.7699
3697
root 9.7299 16.4819 6.02946 22.7367 -5.81867 0.206951
lowerback -21.398 -0.44127 -2.47763
upperback 1.80972 -0.0553272 0.826841
thorax 14.1637 -0.263248 2.34098
lowerneck 0.528766 -0.370568 -3.36471
upperneck 21.7735 -1.08445 3.93312
head 6.55193 -0.511621 1.77546
rclavicle 1.68967e-014 6.95746e-016
rhumerus -37.0928 -1.75384 -77.798
rradius 45.5189
rwrist -1.70239
rhand -2.88407 -776.066
rfingers 7.12502
rthumb 22.8252 275.264
lclavicle 1.68967e-014 6.95746e-016
lhumerus -20.7722 -0.618353 82.2
lradius 18.8398
lwrist -10.1863
lhand -22.2505 -13.0963
lfingers 7.12502
lthumb 4.16689 -343.157
rfemur -25.2681 1.4961 18.4841
rtibia 12.9208
rfoot -14.4804 -4.67779
rtoes -18.4403
lfemur -22.5542 -7.72562 -15.4295
ltibia 13.4175
lfoot 348.408 5.11799
ltoes -22.1355
3698
root 9.68611 16.4902 6.02403 22.9659 -6.23862 0.162583
lowerback -21.2785 -0.239963 -2.25977
upperback 1.82484 0.158762 0.787229
thorax 14.098 -0.145612 2.24047
lowerneck -0.525201 -0.211256 -2.77517
upperneck 22.8166 -0.729564 3.03476
head 7.05949 -0.352278 1.41226
rclavicle -1.63997e-015 -1.64991e-014
rhumerus -36.7451 -1.6955 -77.8228
rradius 45.4506
rwrist -1.53159
rhand -2.72105 -775.952
rfingers 7.12502
rthumb 22.9817 275.398
lclavicle -1.63997e-015 -1.64991e-014
lhumerus -20.985 0.432295 81.6728
lradius 18.1938
lwrist -11.3788
lhand -21.3883 -11.5941
lfingers 7.12502
lthumb 4.99946 -341.673
rfemur -25.2933 1.55856 18.6987
rtibia 12.498
rfoot -14.4921 -4.23271
rtoes -16.3519
lfemur -22.8285 -7.79551 -15.1869
ltibia 13.6047
lfoot 348.308 5.49709
ltoes -21.1514
3699
root 9.63945 16.4999 6.01184 23.1795 -6.68219 0.191827
lowerback -20.8996 -0.162365 -2.21282
upperback 1.75657 0.241248 0.786029
thorax 13.7914 -0.0983199 2.23384
lowerneck -1.79383 -0.0295666 -2.2066
upperneck 24.1039 -0.308483 2.00247
head 7.69856 -0.182749 1.01395
rclavicle -1.23246e-014 -1.47101e-014
rhumerus -36.5168 -1.46252 -77.8764
rradius 45.576
rwrist -1.29047
rhand -2.59652 -775.972
rfingers 7.12502
rthumb 23.1011 275.393
lclavicle -1.23246e-014 -1.47101e-014
lhumerus -21.3252 1.2958 81.1651
lradius 17.5658
lwrist -11.8839
lhand -21.1992 -10.7574
lfingers 7.12502
lthumb 5.18197 -340.841
rfemur -25.4688 1.5488 18.8352
rtibia 12.3778
rfoot -14.5557 -3.69508
rtoes -14.8086
lfemur -23.2376 -7.73811 -15.0195
ltibia 13.97
lfoot 348.305 5.88594
ltoes -21.1943
3700
root 9.58974 16.5031 6.01096 23.3452 -7.14411 0.349761
lowerback -20.8618 -0.12817 -2.32092
upperback 1.84689 0.318585 0.756036
thorax 13.8709 -0.071912 2.28726
lowerneck -0.169378 0.00526474 -3.6875
upperneck 22.4164 -0.528763 3.84343
head 6.86023 -0.271326 1.83877
rclavicle 1.21259e-014 -1.98785e-015
rhumerus -36.2342 -1.18006 -77.9867
rradius 45.9001
rwrist -1.52252
rhand -2.61488 -776.276
rfingers 7.12502
rthumb 23.0835 275.087
lclavicle 1.21259e-014 -1.98785e-015
lhumerus -21.5315 2.31115 80.5937
lradius 16.989
lwrist -12.6346
lhand -21.2491 -10.4998
lfingers 7.12502
lthumb 5.13387 -340.582
rfemur -25.5195 1.51846 18.7999
rtibia 12.0613
rfoot -14.4661 -3.06085
rtoes -13.968
lfemur -23.5058 -7.54141 -15.0765
ltibia 14.2985
lfoot 348.297 6.20302
ltoes -22.5896
3701
root 9.5435 16.5029 6.01288 23.479 -7.51291 0.6326
lowerback -21.0371 -0.125239 -2.45817
upperback 2.04057 0.374789 0.679794
thorax 14.1987 -0.0608798 2.30212
lowerneck -0.263837 0.168615 -3.24693
upperneck 22.0494 -0.221532 3.30579
head 6.74678 -0.128524 1.60322
rclavicle -1.19768e-014 -3.97569e-016
rhumerus -35.8155 -0.995773 -78.0614
rradius 46.2188
rwrist -1.54517
rhand -2.50322 -777.055
rfingers 7.12502
rthumb 23.1907 274.321
lclavicle -1.19768e-014 -3.97569e-016
lhumerus -21.6889 3.81412 79.9373
lradius 16.4123
lwrist -14.1949
lhand -21.145 -10.4231
lfingers 7.12502
lthumb 5.23438 -340.508
rfemur -25.4853 1.20359 18.6552
rtibia 11.5301
rfoot -14.137 -2.29289
rtoes -14.4639
lfemur -23.6395 -7.53425 -15.2801
ltibia 14.4282
lfoot 348.325 6.55395
ltoes -23.6417
3702
root 9.49838 16.5003 6.01471 23.6497 -7.8076 0.816016
lowerback -21.1095 -0.154304 -2.50564
upperback 2.11499 0.356219 0.643252
thorax 14.3306 -0.0743682 2.28341
lowerneck -0.422787 0.317498 -2.70629
upperneck 22.3679 0.125072 2.35354
head 6.87145 0.00737679 1.22615
rclavicle -3.27995e-015 -1.39149e-015
rhumerus -35.4923 -0.811117 -78.0814
rradius 46.5192
rwrist -1.31703
rhand -2.03573 -777.559
rfingers 7.12502
rthumb 23.6391 273.874
lclavicle -3.27995e-015 -1.39149e-015
lhumerus -22.032 5.09798 79.2942
lradius 15.8514
lwrist -15.1587
lhand -21.1859 -10.4424
lfingers 7.12502
lthumb 5.1949 -340.526
rfemur -25.5415 0.863749 18.658
rtibia 11.1632
rfoot -13.9016 -1.58639
rtoes -15.5335
lfemur -23.7821 -7.61712 -15.331
ltibia 14.494
lfoot 348.32 6.87821
ltoes -22.7456
3703
root 9.45386 16.5004 6.0102 23.7792 -7.97526 0.89865
lowerback -20.973 -0.199995 -2.44423
upperback 2.15668 0.277269 0.635308
thorax 14.3042 -0.104825 2.21199
lowerneck -0.376332 0.474444 -2.74362
upperneck 22.162 0.317559 2.47887
head 6.79017 0.105779 1.28218
rclavicle 4.07509e-015 -3.20043e-014
rhumerus -35.1928 -0.523314 -78.1624
rradius 46.7403
rwrist -1.49982
rhand -2.0808 -776.892
rfingers 7.12502
rthumb 23.5959 274.535
lclavicle 4.07509e-015 -3.20043e-014
lhumerus -22.4561 5.96986 78.6861
lradius 15.4487
lwrist -15.6264
lhand -20.878 -10.406
lfingers 7.12502
lthumb 5.4921 -340.497
rfemur -25.5558 0.787676 18.7306
rtibia 10.8889
rfoot -13.8693 -1.22962
rtoes -14.834
lfemur -23.9198 -7.6783 -15.2375
ltibia 14.5666
lfoot 348.326 7.04183
ltoes -21.5449
3704
root 9.40981 16.5024 5.99808 23.8152 -8.08797 1.13576
lowerback -20.5712 -0.309986 -2.52568
upperback 2.19901 0.146218 0.601197
thorax 14.1253 -0.16636 2.17331
lowerneck -0.508285 0.606404 -2.64176
upperneck 21.9503 0.498418 2.45951
head 6.73962 0.199639 1.26755
rclavicle 8.64713e-015 -3.97569e-016
rhumerus -34.9883 -0.15788 -78.2625
rradius 47.139
rwrist -1.90403
rhand -2.41737 -776.072
rfingers 7.12502
rthumb 23.273 275.315
lclavicle 8.64713e-015 -3.97569e-016
lhumerus -22.9961 6.6631 78.1097
lradius 15.2401
lwrist -16.1789
lhand -20.0206 -10.4881
lfingers 7.12502
lthumb 6.31995 -340.602
rfemur -25.567 0.776217 18.5584
rtibia 10.6635
rfoot -13.9 -1.02538
rtoes -13.2295
lfemur -24.1696 -7.5916 -15.3303
ltibia 14.8618
lfoot 348.421 7.04783
ltoes -22.769
